HIERARCHY
ROOT SpineBase
{
  OFFSET 0.000000 0.000000 0.000000
  CHANNELS 6 Xposition Yposition Zposition Zrotation Xrotation Yrotation
  JOINT SpineMid
  {
    OFFSET 0.000000 31.626203 0.000000
    CHANNELS 3 Zrotation Xrotation Yrotation
    JOINT SpineShoulder
    {
      OFFSET -0.292284 23.489963 -0.764260
      CHANNELS 3 Zrotation Xrotation Yrotation
      JOINT Neck
      {
        OFFSET -0.166680 7.777166 -0.601044
        CHANNELS 3 Zrotation Xrotation Yrotation
        JOINT Head
        {
          OFFSET -1.306787 10.444677 6.922443
          CHANNELS 3 Zrotation Xrotation Yrotation
          End Site
          {
            OFFSET 0 0 0
          }
        }
      }
      JOINT ShoulderLeft
      {
        OFFSET -4.610657 -1.915463 25.495607
        CHANNELS 3 Zrotation Xrotation Yrotation
        JOINT ElbowLeft
        {
          OFFSET -9.124357 -20.348053 -21.751373
          CHANNELS 3 Zrotation Xrotation Yrotation
          JOINT WristLeft
          {
            OFFSET -8.278030 -23.887600 -1.528662
            CHANNELS 3 Zrotation Xrotation Yrotation
            JOINT HandLeft
            {
              OFFSET 1.931748 -7.569183 3.477369
              CHANNELS 3 Zrotation Xrotation Yrotation
              JOINT HandTipLeft
              {
                OFFSET 0.134878 -0.448087 0.019825
                CHANNELS 3 Zrotation Xrotation Yrotation
                End Site
                {
                  OFFSET 0 0 0
                }
              }
              JOINT ThumbLeft
              {
                OFFSET -0.146819 -0.187424 -0.415819
                CHANNELS 3 Zrotation Xrotation Yrotation
                End Site
                {
                  OFFSET 0 0 0
                }
              }
            }
          }
        }
      }
      JOINT ShoulderRight
      {
        OFFSET 0.422513 -5.105018 -11.711555
        CHANNELS 3 Zrotation Xrotation Yrotation
        JOINT ElbowRight
        {
          OFFSET -13.330262 -18.851016 -1.073505
          CHANNELS 3 Zrotation Xrotation Yrotation
          JOINT WristRight
          {
            OFFSET -1.418224 -19.006410 9.239452
            CHANNELS 3 Zrotation Xrotation Yrotation
            JOINT HandRight
            {
              OFFSET 3.287314 -3.981905 -0.111062
              CHANNELS 3 Zrotation Xrotation Yrotation
              JOINT HandTipRight
              {
                OFFSET -1.463593 -7.187434 1.233997
                CHANNELS 3 Zrotation Xrotation Yrotation
                End Site
                {
                  OFFSET 0 0 0
                }
              }
              JOINT ThumbRight
              {
                OFFSET 0.345426 2.932661 2.639391
                CHANNELS 3 Zrotation Xrotation Yrotation
                End Site
                {
                  OFFSET 0 0 0
                }
              }
            }
          }
        }
      }
    }
  }
  JOINT HipLeft
  {
    OFFSET -1.968840 2.035378 -2.353763
    CHANNELS 3 Zrotation Xrotation Yrotation
    JOINT KneeLeft
    {
      OFFSET 1.006342 -37.620513 -5.690062
      CHANNELS 3 Zrotation Xrotation Yrotation
      JOINT AnkleLeft
      {
        OFFSET 4.598112 -41.021489 0.496430
        CHANNELS 3 Zrotation Xrotation Yrotation
        JOINT FootLeft
        {
          OFFSET 0.352123 -5.583538 0.315590
          CHANNELS 3 Zrotation Xrotation Yrotation
          End Site
          {
            OFFSET 0 0 0
          }
        }
      }
    }
  }
  JOINT HipRight
  {
    OFFSET 0.010262 0.551602 -4.875445
    CHANNELS 3 Zrotation Xrotation Yrotation
    JOINT KneeRight
    {
      OFFSET 11.196441 -34.544193 4.159584
      CHANNELS 3 Zrotation Xrotation Yrotation
      JOINT AnkleRight
      {
        OFFSET 2.747347 -28.776475 2.755625
        CHANNELS 3 Zrotation Xrotation Yrotation
        JOINT FootRight
        {
          OFFSET -10.828055 -3.476213 -4.491546
          CHANNELS 3 Zrotation Xrotation Yrotation
          End Site
          {
            OFFSET 0 0 0
          }
        }
      }
    }
  }
}
MOTION
Frames: 14
Frame Time: 0.033333
76.936112 82.532245 271.637400 1.678475 0.958852 57.418198 -0.254309 -0.102239 -57.367408 0.511600 0.054090 0.121831 -3.176963 -2.038294 0.304054 0.000000 0.000000 0.000000 -2.085170 -1.671533 0.164449 -0.053761 0.934428 -0.357917 -0.000000 0.000000 0.000000 -9.148661 18.930481 7.087724 0.000000 0.000000 0.000000 0.000000 0.000000 0.000000 -2.974043 -0.500311 -0.321522 0.833687 -0.232330 0.119130 -12.837882 -2.388075 -2.074606 7.896237 16.195818 -1.268198 0.000000 0.000000 0.000000 0.000000 0.000000 0.000000 -3.596530 2.977400 -56.948510 5.300228 -0.112012 -0.454499 -79.986862 24.575723 17.803865 0.000000 0.000000 0.000000 -2.604686 -4.489458 -58.131825 -5.389604 2.438357 0.648343 1.522529 1.304445 -0.570640 0.000000 0.000000 0.000000
76.812061 82.448532 271.859980 1.588613 0.735109 57.883449 -0.172039 -0.062393 -57.834148 0.492889 0.068661 0.115111 -3.079377 -2.051048 0.301134 0.000000 0.000000 0.000000 -1.789014 -2.147025 0.236517 -0.249462 1.528860 -0.409368 -0.000000 0.000000 0.000000 -7.365215 19.087484 6.889554 0.000000 0.000000 0.000000 0.000000 0.000000 0.000000 -2.611452 -0.082929 -0.530074 0.571671 -0.530996 0.346898 -16.818923 -6.238459 -6.389767 10.871881 18.676228 2.518508 0.000000 0.000000 0.000000 0.000000 0.000000 0.000000 -3.202006 2.905363 -57.444653 5.095896 0.099222 -0.401594 -79.875577 24.499730 17.488262 0.000000 0.000000 0.000000 -2.127207 -4.922782 -58.530666 -5.972814 2.620327 0.625215 1.307325 0.994172 0.208715 0.000000 0.000000 0.000000
76.685177 82.382717 272.082111 1.501299 0.551658 58.362970 -0.123664 -0.033628 -58.315795 0.465051 0.068388 0.107415 -2.969158 -2.087296 0.297935 0.000000 0.000000 0.000000 -1.471710 -2.794358 0.391407 -0.444352 2.305250 -0.537410 -0.000000 0.000000 0.000000 -2.729832 16.719179 5.419161 0.000000 0.000000 0.000000 0.000000 0.000000 0.000000 -2.550336 0.463718 -0.804756 0.632310 -0.947011 0.641699 -18.834233 -4.638969 -4.721029 14.473147 5.742955 2.702713 0.000000 0.000000 0.000000 0.000000 0.000000 0.000000 -2.832391 2.787932 -57.960997 4.844532 0.315398 -0.344995 -79.742520 24.416894 17.164447 0.000000 0.000000 0.000000 -1.886499 -4.555584 -58.957527 -5.350814 2.465356 0.580174 0.928246 0.921193 0.169377 0.000000 0.000000 0.000000
76.571571 82.334428 272.282172 1.442234 0.427491 58.692682 -0.107355 -0.032957 -58.646837 0.436660 0.055290 0.101416 -2.927300 -2.130693 0.313350 0.000000 0.000000 0.000000 -1.191029 -3.386609 0.522468 -0.305881 2.196913 -0.392355 -0.333870 0.823760 -0.261321 0.823620 14.642830 4.375672 0.000000 0.000000 0.000000 0.000000 0.000000 0.000000 -2.191679 1.154058 -1.208799 0.371649 -1.515926 1.058980 -19.158195 0.408241 1.098181 15.695405 -14.843163 0.917485 0.000000 0.000000 0.000000 0.000000 0.000000 0.000000 -2.559803 2.687218 -58.320665 4.662289 0.522959 -0.295518 -79.635592 24.377428 16.888796 0.000000 0.000000 0.000000 -1.686020 -4.376004 -59.243836 -5.035260 2.329057 0.541590 0.702307 0.907319 0.148344 0.000000 0.000000 0.000000
76.494892 82.287299 272.475230 1.442961 0.336531 58.878827 -0.128358 -0.036587 -58.833196 0.398325 0.020184 0.096479 -3.033384 -2.272931 0.384883 0.000000 0.000000 0.000000 -1.064673 -3.593732 0.611007 -0.343147 2.476935 -0.445089 -0.370662 0.897748 -0.284027 2.061556 14.209555 4.132114 0.000000 0.000000 0.000000 0.000000 0.000000 0.000000 -2.158680 1.791018 -1.542480 0.406198 -2.004457 1.406402 -13.352815 3.152933 3.700491 9.937857 -22.539842 -0.239245 0.000000 0.000000 0.000000 0.000000 0.000000 0.000000 -2.427683 2.726603 -58.511404 4.695684 0.733730 -0.266623 -79.592767 24.365223 16.631213 0.000000 0.000000 0.000000 -1.515213 -4.302336 -59.388697 -4.880495 2.135468 0.499948 0.513451 1.003044 0.140496 0.000000 0.000000 0.000000
76.485008 82.263724 272.633047 1.519531 0.318612 58.641586 -0.133497 -0.036313 -58.593703 0.371377 -0.002213 0.097221 -3.269754 -2.395665 0.484654 0.000000 0.000000 0.000000 -1.157409 -3.404113 0.589320 -0.319962 2.372349 -0.441473 -0.349512 0.856824 -0.271533 3.829557 12.162057 3.416764 0.000000 0.000000 0.000000 0.000000 0.000000 0.000000 -3.142471 2.129397 -1.670472 1.357344 -2.269315 1.569331 -13.269652 2.467317 2.979813 11.370479 -25.142731 1.501441 0.000000 0.000000 0.000000 0.000000 0.000000 0.000000 -2.477125 2.833268 -58.263586 4.795492 0.934277 -0.253751 -79.533075 24.464443 16.504901 0.000000 0.000000 0.000000 -1.461634 -3.789065 -59.097746 -3.929836 1.355739 0.413575 0.179456 1.659319 -0.665129 0.000000 0.000000 0.000000
76.531558 82.255914 272.738848 1.658322 0.411914 58.379522 -0.083251 -0.035455 -58.326735 0.356938 -0.013398 0.105033 -3.682543 -2.508355 0.636436 0.000000 0.000000 0.000000 -1.225881 -3.650376 0.543973 -0.350009 2.440212 -0.392601 -0.401891 0.910667 -0.286183 1.691297 12.512083 3.670939 0.000000 0.000000 0.000000 0.000000 0.000000 0.000000 -3.085786 2.547000 -2.081511 1.187303 -2.809001 1.965196 -10.903247 6.733219 7.049082 5.726247 -28.667736 -3.212286 0.000000 0.000000 0.000000 0.000000 0.000000 0.000000 -2.713513 3.051223 -57.967689 5.068891 1.027637 -0.268570 -79.542137 24.606025 16.505563 0.000000 0.000000 0.000000 -1.622405 -3.560906 -58.832122 -3.270769 0.734395 0.384558 -0.289569 2.255280 -0.801835 0.000000 0.000000 0.000000
76.604177 82.252527 272.837890 1.834333 0.544607 58.111888 -0.060411 -0.050065 -58.053502 0.337763 -0.045474 0.114128 -4.212505 -2.231665 0.893551 0.000000 0.000000 0.000000 -1.342468 -3.904102 0.523873 -0.370640 2.391487 -0.322847 -0.445989 1.102375 -0.348513 1.723493 12.755543 3.739304 0.000000 0.000000 0.000000 0.000000 0.000000 0.000000 -3.490244 1.991349 -1.776755 1.381303 -2.364101 1.637593 -14.415820 7.862989 8.786904 6.752267 -31.705589 -5.032807 0.000000 0.000000 0.000000 0.000000 0.000000 0.000000 -2.780750 3.361157 -57.674664 5.223567 0.677215 -0.284483 -79.568834 24.779983 16.747556 0.000000 0.000000 0.000000 -1.892042 -3.310872 -58.579114 -2.858981 0.638396 0.402031 -0.462452 2.362913 -0.980339 0.000000 0.000000 0.000000
76.641202 82.270044 272.946539 2.005242 0.786493 57.376168 0.044383 -0.047309 -57.312425 0.334687 -0.024867 0.127985 -4.794910 -2.126292 1.143474 0.000000 0.000000 0.000000 -1.482909 -4.179836 0.371568 -0.394218 2.271891 -0.184716 -0.511627 1.146413 -0.358647 1.656806 11.123952 3.269890 0.000000 0.000000 0.000000 0.000000 0.000000 0.000000 -4.460262 1.778800 -1.853572 2.136799 -2.475213 1.699438 -14.325852 10.370111 11.414390 2.228782 -36.049085 -8.907636 0.000000 0.000000 0.000000 0.000000 0.000000 0.000000 -3.282483 3.493309 -56.899615 5.623958 0.934994 -0.300633 -79.611681 24.958473 16.689244 0.000000 0.000000 0.000000 -2.155822 -3.250270 -57.842459 -2.740083 0.698812 0.409770 -0.475134 2.320181 -1.192226 0.000000 0.000000 0.000000
76.668035 82.314773 273.052183 2.190468 1.173212 56.646509 0.153750 -0.053630 -56.578110 0.332566 -0.005604 0.144743 -5.198620 -1.650097 1.314041 0.000000 0.000000 0.000000 -1.627150 -4.581938 0.179412 -0.428886 2.260477 -0.056351 -0.592772 1.067327 -0.325649 0.557542 11.070775 3.321892 0.000000 0.000000 0.000000 0.000000 0.000000 0.000000 -4.464068 1.450805 -2.040892 1.903308 -2.640134 1.826432 -13.558768 14.611937 15.646243 -4.677916 -38.435803 -15.698337 0.000000 0.000000 0.000000 0.000000 0.000000 0.000000 -4.175892 3.464941 -56.122188 6.185918 1.702552 -0.322646 -79.619331 25.137521 16.374759 0.000000 0.000000 0.000000 -2.480552 -3.523085 -57.111601 -3.142504 1.020269 0.420576 -0.224177 2.103686 -1.423867 0.000000 0.000000 0.000000
76.659916 82.395408 273.206929 2.366401 1.688010 55.392004 0.288382 -0.040583 -55.321176 0.322941 0.019739 0.162254 -5.375681 -1.380128 1.325159 0.000000 0.000000 0.000000 -1.711780 -5.098502 -0.087245 -0.485569 2.465395 0.049952 -0.702661 0.721974 -0.200296 -0.192355 12.037293 3.666197 0.000000 0.000000 0.000000 0.000000 0.000000 0.000000 -7.997881 0.345366 -1.622736 5.164901 -2.107808 1.335364 -8.327744 17.569880 16.970336 -7.601317 -37.267012 -16.899930 0.000000 0.000000 0.000000 0.000000 0.000000 0.000000 -5.317637 3.053372 -54.857632 6.532533 2.917210 -0.326522 -79.438691 25.225340 15.762802 0.000000 0.000000 0.000000 -2.734073 -3.895536 -55.812838 -3.279760 0.919314 0.379017 -0.340860 2.188707 -1.559012 0.000000 0.000000 0.000000
76.709464 82.509519 273.361569 2.606163 2.289986 54.309781 0.393907 -0.005727 -54.239467 0.318115 0.047246 0.182394 -5.352818 -1.045658 1.193256 0.000000 0.000000 0.000000 -1.827476 -5.541645 -0.437518 -0.550709 2.748568 0.151835 -0.816006 0.146188 0.002595 -0.031341 12.205041 3.706294 0.000000 0.000000 0.000000 0.000000 0.000000 0.000000 -7.174534 -0.233802 -1.887950 4.077530 -2.271218 1.494049 -11.379324 17.220359 17.617083 -0.874197 -33.388249 -15.353888 0.000000 0.000000 0.000000 0.000000 0.000000 0.000000 -6.972331 2.502911 -53.756779 7.066154 4.878799 -0.364553 -79.107970 25.280251 14.780802 0.000000 0.000000 0.000000 -3.139379 -4.090737 -54.690897 -3.272190 0.786235 0.332383 -0.399384 2.233759 -1.718147 0.000000 0.000000 0.000000
76.786337 82.626254 273.498270 2.877054 2.952573 53.257965 0.430246 0.053127 -53.194158 0.287919 0.067249 0.198811 -5.269206 -0.613274 1.075373 0.000000 0.000000 0.000000 -1.975898 -6.037460 -0.676358 -0.599088 3.084463 0.142453 -0.855934 -0.440170 0.203548 0.655079 11.584320 3.469986 0.000000 0.000000 0.000000 0.000000 0.000000 0.000000 -3.576608 -0.067980 -2.761021 0.335603 -3.296474 2.330575 -15.855680 19.142104 21.207456 -0.121143 -32.401061 -19.391157 0.000000 0.000000 0.000000 0.000000 0.000000 0.000000 -8.499360 1.904323 -52.724608 7.392046 6.525763 -0.396947 -78.729007 25.295378 13.937654 0.000000 0.000000 0.000000 -4.038276 -3.387593 -53.673251 -2.224367 0.699927 0.339838 -0.447774 2.002788 -1.896624 0.000000 0.000000 0.000000
76.872573 82.744729 273.624411 3.151417 3.609361 52.705436 0.384456 0.123224 -52.654738 0.240192 0.070232 0.209766 -5.023726 -0.176304 0.909727 0.000000 0.000000 0.000000 -2.169444 -6.534215 -0.746796 0.630735 4.416958 -0.507351 -2.026449 -1.956054 0.769129 -0.997808 12.849271 3.980924 0.000000 0.000000 0.000000 0.000000 0.000000 0.000000 1.752296 0.305719 -3.817824 -5.006922 -4.685697 3.300325 -22.134404 20.084414 24.909175 4.543368 -27.260449 -22.338481 0.000000 0.000000 0.000000 0.000000 0.000000 0.000000 -9.934492 1.392050 -52.202888 7.769482 7.980361 -0.444596 -78.464189 25.260192 13.169069 0.000000 0.000000 0.000000 -4.859416 -2.886644 -53.137814 -1.519175 0.594941 0.327341 -0.417939 1.805796 -1.994090 0.000000 0.000000 0.000000
